<svg xmlns="http://www.w3.org/2000/svg" viewBox="0 0 456.744 456.744"><path d="M385.411 376.744h-2.977c-10.021-66.621-44.586-121.687-90.847-148.372 46.261-26.685 80.826-81.751 90.847-148.372h2.977c22.091 0 40-17.908 40-40s-17.909-40-40-40H71.333c-22.091 0-40 17.908-40 40s17.909 40 40 40h2.977c10.021 66.621 44.586 121.687 90.847 148.372-46.261 26.685-80.826 81.751-90.847 148.372h-2.977c-22.091 0-40 17.908-40 40s17.909 40 40 40h314.078c22.091 0 40-17.908 40-40s-17.909-40-40-40zm-172.039-70.939c0 12.832-6.094 24.818-16.248 32.663-14.237 10.999-28.26 27.204-32.683 45.863h-39.699c3.871-25.73 12.452-49.93 24.815-69.986 11.326-18.373 25.532-32.826 41.082-41.795a75.426 75.426 0 0 1 22.733-8.593v41.848zm-22.732-121.61c-15.55-8.97-29.756-23.423-41.083-41.796-12.364-20.056-20.945-44.256-24.815-69.985h207.26c-3.87 25.729-12.451 49.929-24.815 69.985-11.326 18.373-25.533 32.826-41.083 41.796a75.514 75.514 0 0 1-75.464 0zm101.663 200.134v.001c-4.423-18.659-18.446-34.863-32.682-45.863-10.154-7.845-16.248-19.831-16.248-32.663v-41.849a75.457 75.457 0 0 1 22.732 8.593c15.55 8.97 29.756 23.422 41.082 41.795 12.364 20.056 20.944 44.256 24.815 69.986h-39.699z"/></svg>